# Blender v2.91.2 OBJ File: ''
# www.blender.org
o Cone.004_Cone.005
v 0.373537 6.525286 -1.625172
v 1.257450 6.800888 -1.095232
v 1.661060 6.525286 -0.146951
v 1.430201 6.800888 0.857460
v 0.653054 6.525286 1.534351
v -0.373537 6.800888 1.625172
v -1.257450 6.525286 1.095232
v -0.000000 8.310768 0.000000
v -1.661059 6.800888 0.146951
v -1.430201 6.525286 -0.857460
v -0.653054 6.800888 -1.534351
v 0.012132 -0.037123 1.281259
v -0.013437 2.486036 0.788733
v -0.495659 -0.030457 1.271039
v -0.246129 2.498228 0.754380
v -0.931363 0.015625 1.115569
v -0.466434 2.499114 0.641991
v -1.221200 0.025144 0.835270
v -0.641992 2.499114 0.466434
v -1.360494 -0.013680 0.471761
v -0.754706 2.499114 0.245219
v -1.340857 -0.043152 0.012447
v -0.793083 2.498818 -0.000389
v -1.260839 -0.041806 -0.409672
v -0.748954 2.486422 -0.242833
v -1.071326 -0.044283 -0.789251
v -0.622848 2.471287 -0.452312
v -0.797986 -0.047252 -1.065455
v -0.428780 2.466228 -0.608827
v -0.442784 -0.049036 -1.240260
v -0.195936 2.468169 -0.704657
v -0.033112 -0.049036 -1.305145
v 0.050723 2.466030 -0.732865
v 0.387912 -0.045874 -1.245008
v 0.286605 2.460830 -0.694227
v 0.775460 -0.042004 -1.068059
v 0.488420 2.463668 -0.598971
v 1.072534 -0.041806 -0.779241
v 0.636217 2.465781 -0.451335
v 1.260839 -0.041806 -0.409671
v 0.719232 2.459713 -0.254997
v 1.325725 -0.041806 0.000001
v 0.733947 2.441110 -0.021344
v 1.260838 -0.041806 0.409672
v 0.684232 2.430527 0.219980
v 1.072533 -0.041806 0.779242
v 0.571517 2.430527 0.441195
v 0.779240 -0.041806 1.072534
v 0.406835 2.441110 0.620647
v 0.413167 -0.040740 1.253115
v 0.208970 2.463836 0.741725
v 0.024834 1.160519 0.992160
v -0.278650 1.144042 0.922201
v -0.555879 1.155210 0.757402
v -0.782706 1.162464 0.532293
v -0.945207 1.156543 0.278124
v -1.025287 1.158212 -0.008724
v -0.994798 1.173751 -0.332235
v -0.850300 1.164260 -0.671665
v -0.625529 1.166800 -0.944861
v -0.333070 1.173717 -1.106557
v -0.007677 1.170895 -1.143769
v 0.315069 1.162012 -1.055457
v 0.608440 1.166220 -0.861645
v 0.845802 1.177816 -0.615266
v 0.975466 1.159305 -0.330709
v 0.994102 1.127578 -0.018890
v 0.925137 1.110325 0.298255
v 0.776443 1.110325 0.590083
v 0.562802 1.127606 0.827369
v 0.310957 1.160478 0.963194
v -0.000000 1.530779 2.762301
v -1.623640 1.987315 2.234748
v -2.627105 1.530779 0.853597
v -2.627105 1.987315 -0.853599
v -1.623640 1.530779 -2.234750
v 0.000001 1.987315 -2.762302
v 1.623641 1.530779 -2.234749
v 0.000000 4.488441 -0.000000
v 2.627105 1.987315 -0.853599
v 2.627105 1.530779 0.853598
v 1.623639 1.987315 2.234750
v -2.179536 2.926291 1.231133
v -2.486924 3.340005 -0.285092
v -1.844391 2.926291 -1.692421
v -0.497363 3.340005 -2.453303
v 1.039640 2.926291 -2.277107
v 2.179536 3.340005 -1.231133
v 2.486923 2.926291 0.285091
v 0.000000 5.606538 -0.000000
v 1.844391 3.340005 1.692420
v 0.497363 2.926291 2.453302
v -1.039641 3.340005 2.277106
v -0.863517 4.219594 -2.071524
v 0.519011 4.590518 -2.183461
v 1.703295 4.219594 -1.461390
v 2.236978 4.590518 -0.181118
v 1.916212 4.219594 1.168335
v 0.863517 4.590517 2.071524
v -0.519011 4.219594 2.183460
v 0.000000 6.622617 -0.000000
v -1.703294 4.590517 1.461390
v -2.236978 4.219594 0.181117
v -1.916211 4.590518 -1.168336
v -0.962558 5.500587 -1.654804
v 0.193944 5.816986 -1.904542
v 1.276365 5.500587 -1.426810
v 1.871259 5.816986 -0.404085
v 1.751395 5.500587 0.772987
v 0.962558 5.816986 1.654804
v -0.193944 5.500587 1.904541
v 0.000000 7.550371 -0.000000
v -1.276365 5.816985 1.426809
v -1.871259 5.500587 0.404084
v -1.751395 5.816986 -0.772988
v 0.940159 7.498580 -0.898184
v 1.288544 7.713476 -0.174035
v 1.144749 7.498580 0.616590
v 0.563698 7.713476 1.171698
v -0.232665 7.498580 1.279258
v -0.940159 7.713476 0.898184
v -1.288544 7.498580 0.174034
v -0.000000 9.282721 0.000000
v -1.144749 7.713476 -0.616590
v -0.563698 7.498580 -1.171698
v 0.232666 7.713476 -1.279257
vt 0.173593 0.246664
vt 0.173593 0.142850
vt 0.234613 0.226837
vt 0.272326 0.174931
vt 0.272326 0.110770
vt 0.234613 0.058864
vt 0.173593 0.039037
vt 0.112573 0.058864
vt 0.074861 0.110770
vt 0.074861 0.174931
vt 0.112573 0.226837
vt 0.488604 0.110770
vt 0.291139 0.110770
vt 0.328851 0.226837
vt 0.389871 0.246664
vt 0.450891 0.226837
vt 0.488604 0.174931
vt 0.450891 0.058864
vt 0.389871 0.039037
vt 0.328851 0.058864
vt 0.291139 0.174931
vt 0.931785 0.934650
vt 0.910433 0.807385
vt 0.931785 0.807385
vt 0.910433 0.934650
vt 0.889081 0.807385
vt 0.867729 0.934650
vt 0.867729 0.807385
vt 0.846378 0.934650
vt 0.846378 0.807385
vt 0.825026 0.934650
vt 0.825026 0.807385
vt 0.803674 0.934650
vt 0.803674 0.807385
vt 0.782323 0.934650
vt 0.782323 0.807385
vt 0.760971 0.934650
vt 0.760971 0.807385
vt 0.739619 0.807385
vt 0.739619 0.934650
vt 0.718268 0.807385
vt 0.718268 0.934650
vt 0.696916 0.807385
vt 0.696916 0.934650
vt 0.675564 0.807385
vt 0.675564 0.934650
vt 0.654212 0.807384
vt 0.632861 0.934650
vt 0.632861 0.807385
vt 0.611509 0.934650
vt 0.611509 0.807385
vt 0.590157 0.934650
vt 0.590157 0.807385
vt 0.568806 0.807385
vt 0.568806 0.934650
vt 0.547454 0.807385
vt 0.694424 0.674615
vt 0.671750 0.697289
vt 0.551268 0.697289
vt 0.547454 0.934650
vt 0.526102 0.807385
vt 0.526102 0.934650
vt 0.504750 0.807385
vt 0.722538 0.614374
vt 0.825026 0.716862
vt 0.793356 0.516902
vt 0.504750 0.721133
vt 0.526102 0.721133
vt 0.547454 0.721133
vt 0.568806 0.721133
vt 0.590157 0.721133
vt 0.611509 0.721133
vt 0.632861 0.721133
vt 0.654212 0.721133
vt 0.675564 0.721133
vt 0.696916 0.721133
vt 0.718268 0.721133
vt 0.739619 0.721133
vt 0.760971 0.721133
vt 0.782323 0.721133
vt 0.803674 0.721133
vt 0.825026 0.721133
vt 0.846378 0.721133
vt 0.867730 0.721133
vt 0.889081 0.721133
vt 0.910433 0.721133
vt 0.931785 0.721133
vt 0.889081 0.934650
vt 0.654212 0.934650
vt 0.643180 0.711846
vt 0.611509 0.716862
vt 0.579839 0.711846
vt 0.528594 0.674615
vt 0.514037 0.646045
vt 0.643180 0.516902
vt 0.611509 0.511886
vt 0.509021 0.614374
vt 0.514037 0.582704
vt 0.579838 0.516902
vt 0.528594 0.554133
vt 0.551268 0.531459
vt 0.671750 0.531459
vt 0.694424 0.554133
vt 0.713997 0.614374
vt 0.708981 0.582703
vt 0.708981 0.646045
vt 0.504750 0.934650
vt 0.793356 0.711846
vt 0.764785 0.697289
vt 0.856697 0.711846
vt 0.927514 0.614374
vt 0.885267 0.697289
vt 0.922498 0.646045
vt 0.907941 0.674615
vt 0.922498 0.582703
vt 0.907941 0.554133
vt 0.856697 0.516902
vt 0.825026 0.511886
vt 0.885267 0.531459
vt 0.764785 0.531459
vt 0.742111 0.554133
vt 0.727554 0.582704
vt 0.727554 0.646045
vt 0.742111 0.674615
vt 0.173593 0.246664
vt 0.173593 0.142850
vt 0.234613 0.226837
vt 0.272326 0.174931
vt 0.272326 0.110770
vt 0.234613 0.058864
vt 0.173593 0.039037
vt 0.112573 0.058864
vt 0.074861 0.110770
vt 0.074861 0.174931
vt 0.112573 0.226837
vt 0.488604 0.110770
vt 0.389871 0.039037
vt 0.291139 0.110770
vt 0.328851 0.226837
vt 0.389871 0.246664
vt 0.450891 0.226837
vt 0.488604 0.174931
vt 0.450891 0.058864
vt 0.328851 0.058864
vt 0.291139 0.174931
vt 0.173593 0.246664
vt 0.173593 0.142850
vt 0.234613 0.226837
vt 0.272326 0.174931
vt 0.272326 0.110770
vt 0.234613 0.058864
vt 0.173593 0.039037
vt 0.112573 0.058864
vt 0.074861 0.110770
vt 0.074861 0.174931
vt 0.112573 0.226837
vt 0.488604 0.110770
vt 0.389871 0.039037
vt 0.291139 0.110770
vt 0.328851 0.226837
vt 0.389871 0.246664
vt 0.450891 0.226837
vt 0.488604 0.174931
vt 0.450891 0.058864
vt 0.328851 0.058864
vt 0.291139 0.174931
vt 0.173593 0.246664
vt 0.173593 0.142850
vt 0.234613 0.226837
vt 0.272326 0.174931
vt 0.272326 0.110770
vt 0.234613 0.058864
vt 0.173593 0.039037
vt 0.112573 0.058864
vt 0.074861 0.110770
vt 0.074861 0.174931
vt 0.112573 0.226837
vt 0.488604 0.110770
vt 0.291139 0.110770
vt 0.328851 0.226837
vt 0.389871 0.246664
vt 0.450891 0.226837
vt 0.488604 0.174931
vt 0.450891 0.058864
vt 0.389871 0.039037
vt 0.328851 0.058864
vt 0.291139 0.174931
vt 0.173593 0.246664
vt 0.173593 0.142850
vt 0.234613 0.226837
vt 0.272326 0.174931
vt 0.272326 0.110770
vt 0.234613 0.058864
vt 0.173593 0.039037
vt 0.112573 0.058864
vt 0.074861 0.110770
vt 0.074861 0.174931
vt 0.112573 0.226837
vt 0.488604 0.110770
vt 0.291139 0.110770
vt 0.328851 0.226837
vt 0.136683 0.162142
vt 0.136683 0.110235
vt 0.167193 0.152228
vt 0.186049 0.126275
vt 0.186049 0.094195
vt 0.167193 0.068242
vt 0.136683 0.058328
vt 0.106173 0.068242
vt 0.087317 0.094195
vt 0.087317 0.126275
vt 0.106173 0.152228
vt 0.294188 0.094195
vt 0.244822 0.058328
vt 0.195456 0.094195
vt 0.389871 0.246664
vt 0.450891 0.226837
vt 0.488604 0.174931
vt 0.450891 0.058864
vt 0.389871 0.039037
vt 0.328851 0.058864
vt 0.291139 0.174931
vt 0.214312 0.152228
vt 0.244822 0.162142
vt 0.275332 0.152228
vt 0.294188 0.126275
vt 0.275332 0.068242
vt 0.214312 0.068242
vt 0.195456 0.126275
vn 0.2079 0.6819 -0.7013
vn 0.7232 0.6819 -0.1097
vn 0.7312 0.6819 -0.0190
vn 0.3278 0.6819 0.6539
vn 0.2441 0.6819 0.6896
vn -0.5206 0.6819 0.5138
vn -0.5804 0.6819 0.4452
vn -0.6496 0.6819 -0.3364
vn -0.6028 0.6819 -0.4144
vn 0.1192 0.6819 -0.7217
vn -0.1360 -0.9886 -0.0642
vn 0.1688 -0.9855 -0.0149
vn -0.0004 -0.9910 0.1341
vn -0.0991 -0.9835 0.1514
vn 0.1725 -0.9849 -0.0153
vn -0.6518 -0.7562 0.0577
vn -0.2563 -0.7562 -0.6021
vn 0.0380 -0.9855 -0.1652
vn 0.4934 -0.7562 -0.4298
vn 0.5612 -0.7562 0.3365
vn -0.1510 0.1273 0.9803
vn -0.2195 0.1394 0.9656
vn -0.2296 0.1412 0.9630
vn -0.4593 0.1079 0.8817
vn -0.4980 0.1168 0.8592
vn -0.5039 0.1181 0.8557
vn -0.6990 0.1082 0.7068
vn -0.7024 0.1073 0.7037
vn -0.6985 0.1084 0.7073
vn -0.8425 0.1299 0.5228
vn -0.8789 0.1177 0.4623
vn -0.8366 0.1317 0.5318
vn -0.9539 0.1607 0.2533
vn -0.9750 0.1454 0.1681
vn -0.9501 0.1629 0.2662
vn -0.9778 0.1866 -0.0953
vn -0.9703 0.1719 -0.1703
vn -0.9785 0.1889 -0.0831
vn -0.8892 0.2176 -0.4025
vn -0.8458 0.1965 -0.4961
vn -0.8952 0.2208 -0.3872
vn -0.7304 0.2668 -0.6288
vn -0.6305 0.2398 -0.7383
vn -0.7447 0.2705 -0.6102
vn -0.3800 0.3078 -0.8723
vn -0.4566 0.2901 -0.8411
vn -0.4687 0.2870 -0.8354
vn -0.1056 0.3050 -0.9465
vn 0.1764 0.2699 -0.9466
vn 0.2497 0.2799 -0.9270
vn 0.2605 0.2813 -0.9236
vn 0.4332 0.2207 -0.8738
vn 0.5213 0.2357 -0.8202
vn 0.5331 0.2375 -0.8120
vn 0.6924 0.2012 -0.6929
vn 0.6994 0.2031 -0.6853
vn 0.7003 0.2033 -0.6843
vn 0.8974 0.1992 -0.3936
vn 0.9042 0.1959 -0.3795
vn 0.8965 0.1997 -0.3955
vn 0.9802 0.1942 -0.0396
vn 0.9797 0.1955 -0.0451
vn 0.9802 0.1941 -0.0388
vn 0.9579 0.1880 0.2170
vn 0.9595 0.1901 0.2079
vn 0.9576 0.1877 0.2185
vn 0.8754 0.1862 0.4461
vn 0.7300 0.1897 0.6565
vn 0.7358 0.1879 0.6506
vn 0.7367 0.1876 0.6496
vn 0.0549 0.9981 -0.0296
vn 0.0643 0.9952 -0.0736
vn 0.0593 0.9979 -0.0246
vn 0.5229 0.1835 0.8324
vn 0.4898 0.1909 0.8507
vn 0.4851 0.1919 0.8531
vn 0.2041 0.1568 0.9663
vn 0.1122 0.1722 0.9787
vn 0.0992 0.1742 0.9797
vn -0.0001 -1.0000 0.0018
vn -0.0048 -1.0000 0.0048
vn 0.0056 -1.0000 0.0020
vn 0.0925 0.2340 0.9678
vn 0.0742 0.2386 0.9683
vn 0.0701 0.2397 0.9683
vn 0.4741 0.2472 0.8450
vn 0.4364 0.2582 0.8619
vn 0.4277 0.2606 0.8655
vn 0.7163 0.2710 0.6430
vn 0.6859 0.2825 0.6706
vn 0.6777 0.2854 0.6777
vn 0.8526 0.2904 0.4344
vn 0.9444 0.2866 0.1615
vn 0.9398 0.2738 0.2047
vn 0.9453 0.2899 0.1497
vn 0.9560 0.2622 -0.1320
vn 0.9690 0.2402 -0.0573
vn 0.9517 0.2675 -0.1507
vn 0.8706 0.2323 -0.4336
vn 0.8881 0.2221 -0.4024
vn 0.8661 0.2348 -0.4413
vn 0.6939 0.2198 -0.6857
vn 0.6837 0.2151 -0.6973
vn 0.6809 0.2138 -0.7005
vn 0.5108 0.2041 -0.8351
vn 0.4322 0.1745 -0.8847
vn 0.4082 0.1655 -0.8977
vn 0.2385 0.1573 -0.9583
vn 0.1609 0.1337 -0.9779
vn 0.1393 0.1270 -0.9821
vn -0.1203 0.1303 -0.9841
vn -0.1481 0.1231 -0.9813
vn -0.1553 0.1211 -0.9804
vn -0.4731 0.1402 -0.8698
vn -0.4437 0.1481 -0.8839
vn -0.4359 0.1501 -0.8874
vn -0.7497 0.1751 -0.6382
vn -0.7082 0.1904 -0.6799
vn -0.6962 0.1946 -0.6910
vn -0.8795 0.2062 -0.4290
vn -0.8914 0.2170 -0.3979
vn -0.8756 0.2028 -0.4385
vn -0.9693 0.2241 -0.1014
vn -0.9563 0.2424 -0.1636
vn -0.9522 0.2470 -0.1797
vn -0.9438 0.2686 0.1928
vn -0.9488 0.3157 -0.0128
vn -0.9438 0.3248 -0.0612
vn -0.8679 0.3731 0.3278
vn -0.7920 0.4141 0.4486
vn -0.8825 0.3627 0.2994
vn -0.6264 0.4164 0.6590
vn -0.6326 0.4147 0.6541
vn -0.6248 0.4168 0.6602
vn -0.3099 0.3646 0.8781
vn -0.4311 0.3402 0.8357
vn -0.2773 0.3700 0.8867
vn -0.0497 0.2793 0.9589
vn -0.1809 0.2450 0.9525
vn -0.0155 0.2873 0.9577
vn -0.1385 0.1251 0.9824
vn -0.4515 0.1061 0.8859
vn -0.7030 0.1072 0.7030
vn -0.8851 0.1154 0.4510
vn -0.9780 0.1425 0.1526
vn -0.9682 0.1688 -0.1849
vn -0.8347 0.1915 -0.5163
vn -0.6068 0.2331 -0.7599
vn -0.3639 0.3111 -0.8779
vn 0.1615 0.2677 -0.9499
vn 0.4141 0.2173 -0.8839
vn 0.6909 0.2008 -0.6945
vn 0.9055 0.1953 -0.3768
vn 0.9796 0.1957 -0.0461
vn 0.9598 0.1905 0.2061
vn 0.7289 0.1901 0.6577
vn 0.0642 0.9914 -0.1136
vn 0.0711 0.9889 -0.1306
vn 0.0732 0.9948 -0.0711
vn 0.0426 0.9991 -0.0006
vn 0.0172 0.9996 0.0228
vn 0.0080 0.9996 0.0289
vn 0.0124 0.9996 0.0272
vn -0.0197 0.9986 0.0484
vn -0.0790 0.9937 0.0793
vn 0.0066 0.9997 0.0227
vn -0.0778 0.9949 0.0636
vn -0.0320 0.9989 0.0329
vn 0.0232 0.9997 -0.0050
vn -0.0276 0.9971 -0.0711
vn 0.0615 0.9980 -0.0178
vn 0.0502 0.9979 -0.0419
vn 0.0480 0.9986 -0.0202
vn 0.5284 0.1822 0.8292
vn 0.2190 0.1542 0.9635
vn -0.0100 -0.9998 -0.0144
vn -0.0085 -0.9999 -0.0088
vn -0.0395 -0.9984 0.0415
vn -0.0125 -0.9998 0.0129
vn -0.1606 -0.9753 0.1514
vn -0.0938 -0.9925 0.0787
vn -0.2079 -0.9610 0.1823
vn 0.0001 -1.0000 0.0030
vn -0.0042 -1.0000 0.0047
vn 0.0012 -0.9999 0.0100
vn 0.0028 -1.0000 0.0055
vn 0.0005 -0.9999 0.0113
vn 0.0182 -0.9997 -0.0181
vn 0.0097 -0.9999 -0.0055
vn 0.0059 -1.0000 -0.0013
vn -0.0045 -1.0000 -0.0011
vn -0.0061 -1.0000 -0.0036
vn 0.0980 0.2325 0.9676
vn 0.4848 0.2440 0.8399
vn 0.7257 0.2672 0.6340
vn 0.9379 0.2695 0.2186
vn 0.9718 0.2332 -0.0344
vn 0.8932 0.2189 -0.3928
vn 0.6971 0.2213 -0.6820
vn 0.5364 0.2136 -0.8165
vn 0.2645 0.1651 -0.9501
vn -0.1115 0.1326 -0.9849
vn -0.4817 0.1379 -0.8654
vn -0.7617 0.1703 -0.6251
vn -0.8952 0.2206 -0.3873
vn -0.9726 0.2180 -0.0812
vn -0.9323 0.2495 0.2617
vn -0.7675 0.4240 0.4808
vn -0.6345 0.4142 0.6526
vn -0.4725 0.3300 0.8172
vn -0.2304 0.2306 0.9454
vn -0.0455 0.6819 0.7301
vn -0.6803 0.6819 0.2689
vn -0.7084 0.6819 0.1823
vn -0.4659 0.6819 -0.5639
vn -0.3923 0.6819 -0.6174
vn 0.3923 0.6819 -0.6174
vn 0.4659 0.6819 -0.5639
vn 0.7084 0.6819 0.1823
vn 0.6803 0.6819 0.2689
vn 0.0455 0.6819 0.7301
vn 0.1612 -0.9855 0.0524
vn -0.0000 -0.9855 0.1695
vn -0.1612 -0.9855 0.0524
vn -0.0996 -0.9855 -0.1371
vn 0.0000 -0.7562 -0.6544
vn 0.0996 -0.9855 -0.1371
vn 0.6223 -0.7562 -0.2022
vn 0.3846 -0.7562 0.5294
vn -0.3846 -0.7562 0.5294
vn -0.6223 -0.7562 -0.2022
vn -0.6580 0.6819 0.3195
vn -0.5687 0.6819 -0.4601
vn -0.5072 0.6819 -0.5271
vn 0.2618 0.6819 -0.6830
vn 0.3446 0.6819 -0.6452
vn 0.7305 0.6819 0.0380
vn 0.7201 0.6819 0.1283
vn 0.1896 0.6819 0.7065
vn 0.1005 0.6819 0.7246
vn -0.6133 0.6819 0.3987
vn 0.0297 -0.9887 0.1466
vn -0.1476 -0.9855 0.0834
vn 0.0363 -0.9950 -0.0932
vn -0.0697 -0.9950 -0.0717
vn 0.5698 -0.7562 -0.3218
vn 0.1684 -0.9855 0.0193
vn 0.4822 -0.7562 0.4424
vn -0.2718 -0.7562 0.5953
vn -0.6501 -0.7562 -0.0745
vn -0.0164 -0.9966 -0.0807
vn -0.2389 0.6819 -0.6914
vn 0.5245 0.6819 -0.5099
vn 0.5837 0.6819 -0.4409
vn 0.6470 0.6819 0.3412
vn 0.5997 0.6819 0.4189
vn -0.1246 0.6819 0.7208
vn -0.2131 0.6819 0.6998
vn -0.7240 0.6819 0.1043
vn -0.7314 0.6819 0.0136
vn -0.3229 0.6819 -0.6564
vn -0.1186 -0.9910 0.0627
vn 0.1286 -0.9855 -0.1104
vn 0.1200 -0.9886 0.0906
vn 0.2518 -0.7562 0.6040
vn -0.0666 -0.9849 -0.1598
vn -0.0880 -0.9835 0.1581
vn -0.5587 -0.7562 -0.3407
vn -0.0652 -0.9855 -0.1564
vn 0.1513 -0.7562 -0.6366
vn 0.6522 -0.7562 -0.0528
vn -0.3278 0.6819 -0.6540
vn 0.4529 0.6819 -0.5745
vn 0.5207 0.6819 -0.5138
vn 0.6863 0.6819 0.2532
vn 0.6495 0.6819 0.3364
vn -0.0287 0.6819 0.7309
vn -0.1192 0.6819 0.7217
vn -0.7040 0.6819 0.1986
vn -0.7232 0.6819 0.1096
vn -0.4064 0.6819 -0.6082
vn -0.1268 -0.9916 0.0274
vn 0.0427 -0.9910 -0.1271
vn 0.0914 -0.9910 0.0982
vn 0.6483 0.5862 -0.4859
vn 0.7540 0.5862 0.2965
vn 0.6624 0.5862 0.4664
vn -0.0490 0.5862 0.8087
vn -0.2389 0.5862 0.7741
vn -0.7842 0.5862 0.2033
vn -0.8101 0.5862 0.0120
vn -0.4357 0.5862 -0.6830
vn -0.2617 0.5862 -0.7667
vn 0.5149 0.5862 -0.6254
vn -0.0735 -0.9855 -0.1527
vn 0.1225 -0.9855 -0.1171
vn 0.1492 -0.9855 0.0804
vn 0.0312 -0.9835 0.1782
vn 0.1154 -0.9849 -0.1290
vn -0.4363 -0.7562 0.4877
vn -0.5987 -0.7562 -0.2642
vn 0.1584 -0.9849 0.0699
vn -0.0451 -0.9835 -0.1752
vn 0.6396 -0.7562 -0.1381
vn -0.0303 -0.9855 0.1667
vn -0.4732 -0.7562 0.4520
vn -0.1680 -0.9855 0.0227
vn -0.5761 -0.7562 -0.3103
vn 0.1171 -0.7562 -0.6438
vn 0.6485 -0.7562 -0.0876
vn 0.2837 -0.7562 0.5897
s 1
f 1/1/1 8/2/1 2/3/1
f 2/3/2 8/2/2 3/4/2
f 3/4/3 8/2/3 4/5/3
f 4/5/4 8/2/4 5/6/4
f 5/6/5 8/2/5 6/7/5
f 6/7/6 8/2/6 7/8/6
f 7/8/7 8/2/7 9/9/7
f 9/9/8 8/2/8 10/10/8
f 10/10/9 8/2/9 11/11/9
f 11/11/10 8/2/10 1/1/10
f 4/12/11 9/13/12 11/14/13
f 11/14/13 1/15/14 4/12/11
f 1/15/14 2/16/15 4/12/11
f 2/16/15 3/17/16 4/12/11
f 4/12/11 5/18/17 6/19/18
f 6/19/18 7/20/19 9/13/12
f 9/13/12 10/21/20 11/14/13
f 4/12/11 6/19/18 9/13/12
f 13/22/21 53/23/22 52/24/23
f 15/25/24 54/26/25 53/23/26
f 54/26/27 19/27/28 55/28/29
f 55/28/30 21/29/31 56/30/32
f 56/30/33 23/31/34 57/32/35
f 57/32/36 25/33/37 58/34/38
f 58/34/39 27/35/40 59/36/41
f 59/36/42 29/37/43 60/38/44
f 29/37/45 61/39/46 60/38/47
f 31/40/48 62/41/48 61/39/48
f 33/42/49 63/43/50 62/41/51
f 35/44/52 64/45/53 63/43/54
f 37/46/55 65/47/56 64/45/57
f 65/47/58 41/48/59 66/49/60
f 66/49/61 43/50/62 67/51/63
f 67/51/64 45/52/65 68/53/66
f 45/52/67 69/54/67 68/53/67
f 47/55/68 70/56/69 69/54/70
f 19/57/71 17/58/72 49/59/73
f 49/60/74 71/61/75 70/56/76
f 51/62/77 52/63/78 71/61/79
f 42/64/80 12/65/81 34/66/82
f 71/61/83 12/67/84 50/68/85
f 70/56/86 50/68/87 48/69/88
f 69/54/89 48/69/90 46/70/91
f 68/53/92 46/70/92 44/71/92
f 42/72/93 68/53/94 44/71/95
f 40/73/96 67/51/97 42/72/98
f 38/74/99 66/49/100 40/73/101
f 64/45/102 38/74/103 36/75/104
f 63/43/105 36/75/106 34/76/107
f 62/41/108 34/76/109 32/77/110
f 61/39/111 32/77/112 30/78/113
f 60/38/114 30/78/115 28/79/116
f 59/36/117 28/79/118 26/80/119
f 24/81/120 59/36/121 26/80/122
f 57/32/123 24/81/124 22/82/125
f 56/30/126 22/82/127 20/83/128
f 18/84/129 56/30/130 20/83/131
f 16/85/132 55/28/133 18/84/134
f 14/86/135 54/26/136 16/85/137
f 12/87/138 53/23/139 14/86/140
f 13/22/21 15/25/141 53/23/22
f 15/25/24 17/88/142 54/26/25
f 54/26/27 17/88/143 19/27/28
f 55/28/30 19/27/144 21/29/31
f 56/30/33 21/29/145 23/31/34
f 57/32/36 23/31/146 25/33/37
f 58/34/39 25/33/147 27/35/40
f 59/36/42 27/35/148 29/37/43
f 29/37/45 31/40/149 61/39/46
f 31/40/48 33/42/48 62/41/48
f 33/42/49 35/44/150 63/43/50
f 35/44/52 37/46/151 64/45/53
f 37/46/55 39/89/152 65/47/56
f 65/47/58 39/89/153 41/48/59
f 66/49/61 41/48/154 43/50/62
f 67/51/64 43/50/155 45/52/65
f 45/52/67 47/55/67 69/54/67
f 47/55/68 49/60/156 70/56/69
f 17/58/72 15/90/157 49/59/73
f 15/90/157 13/91/158 51/92/159
f 49/59/73 15/90/157 51/92/159
f 49/59/73 47/93/160 19/57/71
f 47/93/160 45/94/161 31/95/162
f 31/95/162 45/94/161 33/96/163
f 45/94/161 43/97/164 33/96/163
f 43/97/164 41/98/165 35/99/166
f 33/96/163 43/97/164 35/99/166
f 41/98/165 39/100/167 37/101/168
f 37/101/168 35/99/166 41/98/165
f 31/95/162 29/102/169 47/93/160
f 47/93/160 29/102/169 19/57/71
f 29/102/169 27/103/170 23/104/171
f 27/103/170 25/105/172 23/104/171
f 23/104/171 21/106/173 29/102/169
f 21/106/173 19/57/71 29/102/169
f 49/60/74 51/62/174 71/61/75
f 51/62/77 13/107/175 52/63/78
f 50/108/176 12/65/81 48/109/177
f 12/65/81 14/110/178 22/111/179
f 14/110/178 16/112/180 20/113/181
f 16/112/180 18/114/182 20/113/181
f 20/113/181 22/111/179 14/110/178
f 22/111/179 24/115/183 12/65/81
f 24/115/183 26/116/184 30/117/185
f 12/65/81 24/115/183 32/118/186
f 26/116/184 28/119/187 30/117/185
f 30/117/185 32/118/186 24/115/183
f 32/118/186 34/66/82 12/65/81
f 34/66/82 36/120/188 38/121/189
f 38/121/189 40/122/190 34/66/82
f 40/122/190 42/64/80 34/66/82
f 42/64/80 44/123/191 12/65/81
f 44/123/191 46/124/192 12/65/81
f 46/124/192 48/109/177 12/65/81
f 71/61/83 52/63/193 12/67/84
f 70/56/86 71/61/194 50/68/87
f 69/54/89 70/56/195 48/69/90
f 68/53/92 69/54/92 46/70/92
f 42/72/93 67/51/196 68/53/94
f 40/73/96 66/49/197 67/51/97
f 38/74/99 65/47/198 66/49/100
f 64/45/102 65/47/199 38/74/103
f 63/43/105 64/45/200 36/75/106
f 62/41/108 63/43/201 34/76/109
f 61/39/111 62/41/202 32/77/112
f 60/38/114 61/39/203 30/78/115
f 59/36/117 60/38/204 28/79/118
f 24/81/120 58/34/205 59/36/121
f 57/32/123 58/34/206 24/81/124
f 56/30/126 57/32/207 22/82/127
f 18/84/129 55/28/208 56/30/130
f 16/85/132 54/26/209 55/28/133
f 14/86/135 53/23/210 54/26/136
f 12/87/138 52/24/211 53/23/139
f 72/125/212 79/126/212 73/127/212
f 73/127/213 79/126/213 74/128/213
f 74/128/214 79/126/214 75/129/214
f 75/129/215 79/126/215 76/130/215
f 76/130/216 79/126/216 77/131/216
f 77/131/217 79/126/217 78/132/217
f 78/132/218 79/126/218 80/133/218
f 80/133/219 79/126/219 81/134/219
f 81/134/220 79/126/220 82/135/220
f 82/135/221 79/126/221 72/125/221
f 75/136/222 77/137/223 80/138/224
f 82/139/225 72/140/226 73/141/227
f 73/141/227 74/142/228 75/136/222
f 75/136/222 76/143/229 77/137/223
f 77/137/223 78/144/230 80/138/224
f 80/138/224 81/145/231 82/139/225
f 82/139/225 73/141/227 80/138/224
f 73/141/227 75/136/222 80/138/224
f 83/146/232 90/147/232 84/148/232
f 84/148/233 90/147/233 85/149/233
f 85/149/234 90/147/234 86/150/234
f 86/150/235 90/147/235 87/151/235
f 87/151/236 90/147/236 88/152/236
f 88/152/237 90/147/237 89/153/237
f 89/153/238 90/147/238 91/154/238
f 91/154/239 90/147/239 92/155/239
f 92/155/240 90/147/240 93/156/240
f 93/156/241 90/147/241 83/146/241
f 86/157/242 88/158/243 91/159/244
f 93/160/245 83/161/246 84/162/247
f 84/162/247 85/163/248 86/157/242
f 86/157/242 87/164/249 88/158/243
f 88/158/243 89/165/250 91/159/244
f 91/159/244 92/166/251 86/157/242
f 92/166/251 93/160/245 86/157/242
f 93/160/245 84/162/247 86/157/242
f 94/167/252 101/168/252 95/169/252
f 95/169/253 101/168/253 96/170/253
f 96/170/254 101/168/254 97/171/254
f 97/171/255 101/168/255 98/172/255
f 98/172/256 101/168/256 99/173/256
f 99/173/257 101/168/257 100/174/257
f 100/174/258 101/168/258 102/175/258
f 102/175/259 101/168/259 103/176/259
f 103/176/260 101/168/260 104/177/260
f 104/177/261 101/168/261 94/167/261
f 97/178/262 102/179/263 104/180/264
f 104/180/264 94/181/265 95/182/266
f 95/182/266 96/183/267 104/180/264
f 96/183/267 97/178/262 104/180/264
f 97/178/262 98/184/268 99/185/269
f 99/185/269 100/186/270 102/179/263
f 102/179/263 103/187/271 104/180/264
f 97/178/262 99/185/269 102/179/263
f 105/188/272 112/189/272 106/190/272
f 106/190/273 112/189/273 107/191/273
f 107/191/274 112/189/274 108/192/274
f 108/192/275 112/189/275 109/193/275
f 109/193/276 112/189/276 110/194/276
f 110/194/277 112/189/277 111/195/277
f 111/195/278 112/189/278 113/196/278
f 113/196/279 112/189/279 114/197/279
f 114/197/280 112/189/280 115/198/280
f 115/198/281 112/189/281 105/188/281
f 108/199/282 113/200/283 115/201/284
f 116/202/285 123/203/285 117/204/285
f 117/204/286 123/203/286 118/205/286
f 118/205/287 123/203/287 119/206/287
f 119/206/288 123/203/288 120/207/288
f 120/207/289 123/203/289 121/208/289
f 121/208/290 123/203/290 122/209/290
f 122/209/291 123/203/291 124/210/291
f 124/210/292 123/203/292 125/211/292
f 125/211/293 123/203/293 126/212/293
f 126/212/294 123/203/294 116/202/294
f 119/213/295 121/214/296 124/215/297
f 115/201/284 105/216/298 108/199/282
f 105/216/298 106/217/299 108/199/282
f 106/217/299 107/218/300 108/199/282
f 108/199/282 109/219/301 110/220/302
f 110/220/302 111/221/303 108/199/282
f 111/221/303 113/200/283 108/199/282
f 113/200/283 114/222/304 115/201/284
f 126/223/305 116/224/306 117/225/307
f 117/225/307 118/226/308 119/213/295
f 119/213/295 120/227/309 121/214/296
f 121/214/296 122/228/310 124/215/297
f 124/215/297 125/229/311 126/223/305
f 126/223/305 117/225/307 124/215/297
f 117/225/307 119/213/295 124/215/297
